<?xml version="1.0" encoding="UTF-8"?>
<!DOCTYPE svg PUBLIC "-//W3C//DTD SVG 1.1//EN" "http://www.w3.org/Graphics/SVG/1.1/DTD/svg11.dtd">
<!-- Creator: CorelDRAW 2019 (64-Bit) -->
<svg xmlns="http://www.w3.org/2000/svg" xml:space="preserve" width="46px" height="45px" version="1.1" style="shape-rendering:geometricPrecision; text-rendering:geometricPrecision; image-rendering:optimizeQuality; fill-rule:evenodd; clip-rule:evenodd"
viewBox="0 0 46 45.81"
 xmlns:xlink="http://www.w3.org/1999/xlink">
 <defs>
  <style type="text/css">
   <![CDATA[
    .fil0 {fill:#3F3F86}
   ]]>
  </style>
 </defs>
 <g id="Layer_x0020_1">
  <metadata id="CorelCorpID_0Corel-Layer"/>
  <g id="_2486171671552">
   <g>
    <g>
     <path class="fil0" d="M45.33 9.37l-13.89 13.8 13.89 13.8c0.25,-0.52 0.4,-1.1 0.4,-1.72l0 -24.16c0,-0.62 -0.15,-1.2 -0.4,-1.72z"/>
    </g>
   </g>
   <g>
    <g>
     <path class="fil0" d="M41.71 7.07l-37.76 0c-0.62,0 -1.2,0.15 -1.72,0.4l17.75 17.67c1.57,1.57 4.12,1.57 5.69,0l17.76 -17.67c-0.52,-0.25 -1.1,-0.4 -1.72,-0.4z"/>
    </g>
   </g>
   <g>
    <g>
     <path class="fil0" d="M0.33 9.37c-0.25,0.52 -0.4,1.1 -0.4,1.72l0 24.16c0,0.62 0.15,1.2 0.4,1.72l13.89 -13.8 -13.89 -13.8z"/>
    </g>
   </g>
   <g>
    <g>
     <path class="fil0" d="M29.54 25.07l-1.97 1.96c-2.61,2.62 -6.87,2.62 -9.49,0l-1.96 -1.96 -13.89 13.8c0.52,0.25 1.1,0.4 1.72,0.4l37.76 0c0.62,0 1.2,-0.15 1.72,-0.4l-13.89 -13.8z"/>
    </g>
   </g>
   <g>
   </g>
   <g>
   </g>
   <g>
   </g>
   <g>
   </g>
   <g>
   </g>
   <g>
   </g>
   <g>
   </g>
   <g>
   </g>
   <g>
   </g>
   <g>
   </g>
   <g>
   </g>
   <g>
   </g>
   <g>
   </g>
   <g>
   </g>
   <g>
   </g>
  </g>
 </g>
</svg>
