<?xml version="1.0" encoding="UTF-8"?>
<!DOCTYPE svg PUBLIC "-//W3C//DTD SVG 1.1//EN" "http://www.w3.org/Graphics/SVG/1.1/DTD/svg11.dtd">
<!-- Creator: CorelDRAW 2019 (64-Bit) -->
<svg xmlns="http://www.w3.org/2000/svg" xml:space="preserve" width="60px" height="59px" version="1.1" style="shape-rendering:geometricPrecision; text-rendering:geometricPrecision; image-rendering:optimizeQuality; fill-rule:evenodd; clip-rule:evenodd"
viewBox="0 0 60 59.76"
 xmlns:xlink="http://www.w3.org/1999/xlink">
 <defs>
  <style type="text/css">
   <![CDATA[
    .fil0 {fill:#3F3F86}
   ]]>
  </style>
 </defs>
 <g id="Layer_x0020_1">
  <metadata id="CorelCorpID_0Corel-Layer"/>
  <path class="fil0" d="M29.84 0.28c-16.57,0 -30,13.43 -30,30.01 0,14.86 10.81,27.16 24.99,29.54l0 -23.29 -7.24 0 0 -8.38 7.24 0 0 -6.18c0,-7.17 4.38,-11.07 10.79,-11.07 3.06,0 5.68,0.22 6.45,0.32l0 7.5 -4.43 0c-3.48,0 -4.15,1.65 -4.15,4.07l0 5.36 8.3 0 -1.09 8.38 -7.21 0 0 23.5c14.85,-1.81 26.35,-14.44 26.35,-29.76 0,-16.57 -13.44,-30 -30,-30l0 0z"/>
 </g>
</svg>
