<?xml version="1.0" encoding="UTF-8"?>
<!DOCTYPE svg PUBLIC "-//W3C//DTD SVG 1.1//EN" "http://www.w3.org/Graphics/SVG/1.1/DTD/svg11.dtd">
<!-- Creator: CorelDRAW 2019 (64-Bit) -->
<svg xmlns="http://www.w3.org/2000/svg" xml:space="preserve" width="46px" height="45px" version="1.1" style="shape-rendering:geometricPrecision; text-rendering:geometricPrecision; image-rendering:optimizeQuality; fill-rule:evenodd; clip-rule:evenodd"
viewBox="0 0 46 45.81"
 xmlns:xlink="http://www.w3.org/1999/xlink">
 <defs>
  <style type="text/css">
   <![CDATA[
    .fil0 {fill:#3F3F86}
   ]]>
  </style>
 </defs>
 <g id="Layer_x0020_1">
  <metadata id="CorelCorpID_0Corel-Layer"/>
  <g id="_2520672907312">
   <g>
    <path class="fil0" d="M29.66 12.45l-13.66 0c-2.18,0 -3.95,1.78 -3.95,3.96l0 13.65c0,2.18 1.77,3.95 3.95,3.95l13.66 0c2.17,0 3.95,-1.77 3.95,-3.95l0 -13.65c0,-2.18 -1.77,-3.96 -3.95,-3.96zm-6.83 17.88c-3.91,0 -7.1,-3.18 -7.1,-7.1 0,-3.91 3.18,-7.09 7.1,-7.09 3.91,0 7.1,3.18 7.1,7.09 0,3.91 -3.19,7.1 -7.1,7.1zm7.32 -12.73c-0.92,0 -1.68,-0.75 -1.68,-1.68 0,-0.92 0.76,-1.68 1.68,-1.68 0.93,0 1.68,0.76 1.68,1.68 0,0.93 -0.75,1.68 -1.68,1.68z"/>
    <path class="fil0" d="M22.83 19.13c-2.26,0 -4.1,1.84 -4.1,4.1 0,2.26 1.84,4.1 4.1,4.1 2.26,0 4.1,-1.84 4.1,-4.1 0,-2.26 -1.84,-4.1 -4.1,-4.1z"/>
    <path class="fil0" d="M22.83 0.27c-12.65,0 -22.9,10.25 -22.9,22.9 0,12.65 10.25,22.9 22.9,22.9 12.65,0 22.9,-10.25 22.9,-22.9 0,-12.65 -10.25,-22.9 -22.9,-22.9zm13.78 29.79c0,3.83 -3.12,6.95 -6.95,6.95l-13.66 0c-3.83,0 -6.95,-3.12 -6.95,-6.95l0 -13.65c0,-3.84 3.12,-6.95 6.95,-6.95l13.66 0c3.83,0 6.95,3.11 6.95,6.95l0 13.65z"/>
   </g>
   <g>
   </g>
   <g>
   </g>
   <g>
   </g>
   <g>
   </g>
   <g>
   </g>
   <g>
   </g>
   <g>
   </g>
   <g>
   </g>
   <g>
   </g>
   <g>
   </g>
   <g>
   </g>
   <g>
   </g>
   <g>
   </g>
   <g>
   </g>
   <g>
   </g>
  </g>
 </g>
</svg>
